<svg width="200" height="200" viewBox="0 0 200 200" xmlns="http://www.w3.org/2000/svg">
  <path d="M100,40 C120,40 135,50 145,65 C155,80 160,100 155,120 C150,140 135,155 115,160 C95,165 75,160 60,145 C45,130 40,110 45,90 C50,70 65,50 85,45 C90,43 95,42 100,42 Z" fill="#3A1F16"/>
  <path d="M70,80 C75,75 85,75 90,80 C95,85 95,95 90,100 C85,105 75,105 70,100 C65,95 65,85 70,80 Z" fill="#FFB949"/>
  <path d="M110,80 C115,75 125,75 130,80 C135,85 135,95 130,100 C125,105 115,105 110,100 C105,95 105,85 110,80 Z" fill="#FFB949"/>
  <path d="M90,120 C95,115 105,115 110,120 C115,125 115,135 110,140 C105,145 95,145 90,140 C85,135 85,125 90,120 Z" fill="#FFB949"/>
  <path d="M155,65 C165,55 175,60 180,70 C185,80 180,90 170,95 C160,100 150,95 145,85 C140,75 145,65 155,65 Z" fill="#FFB949"/>
  <path d="M45,85 C35,75 25,80 20,90 C15,100 20,110 30,115 C40,120 50,115 55,105 C60,95 55,85 45,85 Z" fill="#FFB949"/>
</svg>
