<svg width="40" height="40" viewBox="0 0 40 40" fill="none" xmlns="http://www.w3.org/2000/svg">
  <!-- Body -->
  <ellipse cx="20" cy="20" rx="14" ry="10" fill="#A3E635" stroke="#3A1F16" stroke-width="2"/>
  
  <!-- Stripes -->
  <rect x="12" y="16" width="16" height="4" fill="#3A1F16"/>
  <rect x="12" y="24" width="16" height="4" fill="#3A1F16"/>
  
  <!-- Wings -->
  <ellipse cx="10" cy="16" rx="6" ry="4" fill="#D1D5DB" stroke="#3A1F16" stroke-width="1.5"/>
  <ellipse cx="30" cy="16" rx="6" ry="4" fill="#D1D5DB" stroke="#3A1F16" stroke-width="1.5"/>
  
  <!-- Antennae -->
  <line x1="16" y1="10" x2="14" y2="6" stroke="#3A1F16" stroke-width="1.5"/>
  <line x1="24" y1="10" x2="26" y2="6" stroke="#3A1F16" stroke-width="1.5"/>
  <circle cx="14" cy="6" r="1.5" fill="#3A1F16"/>
  <circle cx="26" cy="6" r="1.5" fill="#3A1F16"/>
  
  <!-- Eyes -->
  <path d="M14 18 L18 18" stroke="#3A1F16" stroke-width="1.5"/>
  <path d="M22 18 L26 18" stroke="#3A1F16" stroke-width="1.5"/>
  
  <!-- Mouth -->
  <path d="M16 22 L24 22" stroke="#3A1F16" stroke-width="1.5"/>
  <line x1="16" y1="22" x2="16" y2="24" stroke="#3A1F16" stroke-width="1.5"/>
  <line x1="20" y1="22" x2="20" y2="24" stroke="#3A1F16" stroke-width="1.5"/>
  <line x1="24" y1="22" x2="24" y2="24" stroke="#3A1F16" stroke-width="1.5"/>
</svg>
