<svg width="100" height="100" viewBox="0 0 100 100" xmlns="http://www.w3.org/2000/svg">
  <pattern id="honeycomb" x="0" y="0" width="30" height="52" patternUnits="userSpaceOnUse" patternTransform="scale(0.5)">
    <path d="M0,26 L15,0 L45,0 L60,26 L45,52 L15,52 Z" fill="none" stroke="#FFB949" stroke-width="2"/>
    <path d="M60,26 L75,0 L105,0 L120,26 L105,52 L75,52 Z" fill="none" stroke="#FFB949" stroke-width="2"/>
    <path d="M30,52 L45,26 L75,26 L90,52 L75,78 L45,78 Z" fill="none" stroke="#FFB949" stroke-width="2"/>
    <path d="M0,78 L15,52 L45,52 L60,78 L45,104 L15,104 Z" fill="none" stroke="#FFB949" stroke-width="2"/>
    <path d="M60,78 L75,52 L105,52 L120,78 L105,104 L75,104 Z" fill="none" stroke="#FFB949" stroke-width="2"/>
  </pattern>
  <rect x="0" y="0" width="100" height="100" fill="url(#honeycomb)"/>
</svg>
